<svg xmlns="http://www.w3.org/2000/svg">
  <symbol id="bird" viewBox="0 0 883 1022" style="position:fixed;width: 80vw;height: 80vh;top: 10vh;left:10vw;z-index: -1">
    <path
        fill="#ffdb00" stroke="black" stroke-width="5"
        d="M 608.00,61.00
           C 607.03,68.39 606.91,69.47 607.00,77.00
             607.26,98.23 622.38,100.75 638.00,107.43
             646.34,110.99 654.26,115.50 662.00,120.20
             689.73,137.04 724.83,165.44 741.94,193.00
             750.69,207.10 754.86,224.68 757.13,241.00
             757.13,241.00 758.82,258.00 758.82,258.00
             757.36,278.34 747.25,283.36 747.00,304.00
             746.66,333.11 758.96,352.20 759.00,379.00
             759.02,394.49 758.09,404.71 755.73,420.00
             755.73,420.00 753.00,435.00 753.00,435.00
             764.78,426.56 782.28,402.60 790.67,390.00
             805.89,367.12 822.67,331.93 823.00,304.00
             823.27,280.75 822.38,262.23 814.31,240.00
             804.68,213.50 788.56,195.56 769.00,176.00
             750.88,157.88 745.79,151.83 724.00,137.33
             702.64,123.12 677.88,110.58 654.00,101.20
             654.00,101.20 631.00,93.19 631.00,93.19
             618.41,86.88 610.65,75.01 610.00,61.00
             610.00,61.00 608.00,61.00 608.00,61.00 Z
           M 277.00,64.00
           C 274.10,73.45 274.28,78.55 267.48,86.99
             258.94,97.59 245.22,100.10 233.00,104.34
             233.00,104.34 218.00,110.42 218.00,110.42
             196.71,119.65 175.02,131.43 156.00,144.72
             137.37,157.74 132.71,163.29 117.00,179.00
             99.46,196.54 84.80,212.08 74.31,235.00
             59.96,266.34 57.82,307.14 67.72,340.00
             73.57,359.42 83.45,378.18 94.67,395.00
             102.35,406.53 121.51,432.48 132.00,440.00
             132.00,440.00 129.43,424.00 129.43,424.00
             129.43,424.00 126.00,392.00 126.00,392.00
             125.94,379.75 127.05,368.94 129.88,357.00
             132.71,345.06 137.85,330.09 138.00,318.00
             138.09,310.29 138.46,302.52 136.52,295.00
             136.52,295.00 128.44,274.00 128.44,274.00
             126.59,267.72 126.99,263.40 127.00,257.00
             127.03,237.70 134.19,211.12 144.69,195.00
             164.25,164.96 201.86,136.02 233.00,118.42
             233.00,118.42 268.00,102.21 268.00,102.21
             276.44,96.14 278.95,89.00 279.00,79.00
             279.02,73.61 279.52,68.93 277.00,64.00 Z
           M 845.00,249.00
           C 842.79,263.28 835.15,267.05 831.61,287.00
             830.33,294.28 830.01,307.38 830.00,315.00
             829.96,337.59 817.60,367.90 805.94,387.00
             798.38,399.39 788.99,412.51 778.96,423.00
             778.96,423.00 768.00,433.91 768.00,433.91
             761.97,439.53 753.96,444.71 750.04,452.00
             745.94,459.65 746.09,467.67 746.00,476.00
             745.77,495.70 738.31,514.11 734.00,533.00
             741.06,530.39 750.84,523.24 757.00,518.63
             771.55,507.71 785.01,495.50 797.17,482.00
             833.01,442.17 860.64,398.26 860.00,343.00
             859.87,331.95 856.29,317.92 853.88,307.00
             848.53,282.63 859.52,283.82 852.33,262.00
             850.80,257.35 849.28,251.75 845.00,249.00 Z
           M 38.00,253.00
           C 33.67,261.35 29.80,270.47 30.01,280.00
             30.01,280.00 32.00,300.00 32.00,300.00
             32.00,300.00 25.00,344.00 25.00,344.00
             25.00,344.00 25.00,360.00 25.00,360.00
             25.02,375.32 30.34,393.81 36.00,408.00
             50.28,443.80 76.50,478.52 105.00,504.17
             115.63,513.73 138.07,533.23 151.00,538.00
             151.00,538.00 140.29,492.00 140.29,492.00
             138.86,480.45 140.53,466.15 134.64,456.00
             130.38,448.67 113.63,436.25 106.17,428.00
             89.49,409.56 73.83,386.27 64.81,363.00
             60.64,352.23 56.28,337.48 55.17,326.00
             55.17,326.00 52.34,287.00 52.34,287.00
             50.09,276.63 47.84,275.00 43.86,266.00
             41.99,261.76 40.86,256.55 38.00,253.00 Z
           M 881.00,343.00
           C 862.09,363.65 861.80,384.79 854.57,410.00
             850.94,422.68 844.07,436.19 836.57,447.00
             817.81,474.03 795.56,498.65 770.00,519.39
             762.69,525.32 754.17,531.47 746.00,536.13
             740.59,539.22 734.47,541.13 730.39,546.04
             726.35,550.90 721.33,565.43 718.58,572.00
             718.58,572.00 705.00,602.00 705.00,602.00
             720.34,599.93 738.19,592.15 752.00,585.25
             792.71,564.89 826.36,534.37 853.37,498.00
             866.23,480.69 882.97,450.98 883.00,429.00
             883.00,429.00 883.00,397.00 883.00,397.00
             883.00,397.00 881.00,370.00 881.00,370.00
             881.00,370.00 881.00,358.00 881.00,358.00
             881.06,352.91 882.88,347.75 881.00,343.00 Z
           M 3.00,347.00
           C 3.00,347.00 3.00,380.00 3.00,380.00
             3.00,380.00 0.00,412.00 0.00,412.00
             0.00,412.00 0.00,425.00 0.00,425.00
             0.04,451.32 15.61,481.05 30.58,502.00
             56.86,538.78 97.69,574.72 139.00,593.69
             148.68,598.14 158.78,601.93 169.00,604.96
             169.00,604.96 180.00,608.00 180.00,608.00
             178.86,601.91 175.85,597.55 173.31,592.00
             173.31,592.00 163.40,569.00 163.40,569.00
             161.13,563.33 157.97,553.54 153.67,549.53
             150.31,546.38 141.59,542.74 137.00,539.94
             126.25,533.38 117.56,526.74 108.00,518.57
             87.12,500.72 63.62,474.90 48.35,452.00
             39.29,438.41 33.48,426.81 29.15,411.00
             22.92,388.23 20.96,364.50 3.00,347.00 Z
           M 740.00,347.00
           C 740.00,347.00 733.26,370.00 733.26,370.00
             733.26,370.00 720.69,402.00 720.69,402.00
             700.08,446.89 666.47,488.50 627.00,518.11
             607.18,532.97 590.21,540.50 568.00,550.69
             550.50,558.73 527.94,570.62 518.31,588.00
             508.55,605.63 509.11,626.87 513.89,646.00
             517.06,658.67 523.85,673.37 524.00,686.00
             524.08,693.45 523.95,693.77 523.00,701.11
             512.69,701.84 507.75,704.40 497.00,701.11
             478.52,695.75 469.55,674.24 461.00,667.00
             461.00,667.00 460.32,678.00 460.32,678.00
             460.93,686.16 461.91,694.46 465.31,702.00
             475.70,725.04 500.23,733.72 524.00,734.00
             559.98,734.42 587.49,722.96 615.00,700.08
             621.48,694.69 632.29,685.57 637.00,679.00
             637.00,679.00 599.00,689.00 599.00,689.00
             623.54,674.87 642.73,663.30 663.00,643.00
             670.33,635.66 680.46,624.27 685.00,615.00
             678.98,617.94 673.60,622.00 668.00,625.66
             651.91,636.16 633.56,647.41 614.00,649.00
             614.00,649.00 634.00,638.69 634.00,638.69
             655.01,627.33 675.38,613.19 691.00,595.00
             698.91,585.78 709.09,571.18 711.00,559.00
             704.97,561.80 692.94,572.80 687.00,577.55
             667.92,592.79 647.27,606.98 622.00,607.00
             633.64,601.51 645.13,595.87 656.00,588.95
             699.53,561.24 734.08,518.20 741.00,466.00
             736.44,469.86 732.82,476.07 729.29,481.00
             729.29,481.00 713.56,501.00 713.56,501.00
             692.77,525.77 656.36,559.62 624.00,567.00
             624.00,567.00 642.00,554.00 642.00,554.00
             642.00,554.00 666.00,535.57 666.00,535.57
             699.12,508.00 726.53,476.43 740.33,435.00
             743.72,424.82 746.87,410.71 747.00,400.00
             747.16,385.92 747.41,378.09 745.08,364.00
             744.13,358.24 743.45,351.85 740.00,347.00 Z
           M 144.00,351.00
           C 139.43,373.71 137.72,377.98 138.00,402.00
             138.00,402.00 139.92,419.00 139.92,419.00
             148.13,468.67 181.40,508.69 219.00,540.08
             228.35,547.89 251.74,566.00 262.00,571.00
             253.13,572.15 238.50,563.25 231.00,558.58
             205.67,542.80 183.15,520.23 164.60,497.00
             164.60,497.00 153.34,482.00 153.34,482.00
             150.62,478.04 148.23,473.43 144.00,471.00
             147.80,486.08 148.99,495.95 155.43,511.00
             169.55,544.02 195.45,571.21 225.00,591.00
             233.74,596.85 255.26,610.17 265.00,612.00
             256.90,614.12 242.51,609.74 235.00,606.22
             219.09,598.76 209.61,591.70 196.00,580.80
             190.06,576.04 180.37,566.87 174.00,564.00
             181.32,595.26 217.25,624.48 244.00,639.72
             250.98,643.70 263.63,650.91 271.00,653.00
             263.59,655.04 255.79,651.48 249.00,648.57
             239.45,644.49 228.71,638.34 220.00,632.66
             214.31,628.94 207.13,623.35 201.00,621.00
             205.54,630.27 215.67,641.66 223.00,649.00
             237.86,663.88 265.80,684.44 285.00,693.00
             275.61,695.23 259.13,686.56 249.00,685.00
             252.58,689.96 255.44,691.96 260.00,695.87
             279.60,712.65 291.35,716.82 315.00,724.67
             321.86,726.94 336.30,731.67 343.00,732.00
             341.44,725.82 341.36,723.16 340.91,717.00
             340.91,717.00 340.04,709.00 340.04,709.00
             339.86,704.45 340.42,703.12 340.83,699.00
             342.30,684.29 344.35,677.50 350.44,664.00
             356.80,649.88 366.96,638.31 367.91,622.00
             368.08,619.04 366.95,610.13 366.38,607.00
             359.00,566.39 314.51,557.03 284.00,539.57
             251.34,520.89 222.41,493.62 199.42,464.00
             182.82,442.60 169.05,418.13 159.00,393.00
             159.00,393.00 150.14,368.00 150.14,368.00
             148.64,362.77 147.35,355.16 144.00,351.00 Z
           M 391.00,445.00
           C 369.57,447.89 347.29,459.94 341.00,482.00
             361.21,479.15 383.44,470.21 399.33,489.09
             401.57,491.75 403.46,494.75 404.73,498.00
             409.30,509.67 404.07,522.40 412.39,533.00
             415.63,537.13 420.17,540.50 425.00,542.54
             433.63,546.19 442.62,546.60 444.67,558.00
             446.28,566.90 443.17,574.26 439.24,582.00
             439.24,582.00 415.33,620.00 415.33,620.00
             397.99,645.72 380.42,671.35 368.15,700.00
             362.31,713.63 356.18,733.14 356.00,748.00
             356.00,748.00 356.00,754.00 356.00,754.00
             356.05,787.46 381.39,822.19 410.00,837.69
             427.75,847.31 454.84,852.97 475.00,853.00
             490.28,853.02 500.68,853.59 516.00,850.74
             554.63,843.55 586.19,823.13 612.05,794.00
             620.06,784.98 636.48,763.14 640.00,752.00
             615.48,757.54 586.42,768.02 563.00,777.40
             546.21,784.12 530.56,793.21 512.00,793.00
             482.12,792.66 467.52,757.08 459.67,733.00
             448.30,698.12 444.07,652.26 455.34,617.00
             458.93,605.78 463.39,594.70 468.31,584.00
             478.44,561.94 490.56,539.02 489.99,514.00
             489.55,495.29 473.84,485.19 461.00,474.13
             452.76,467.03 445.14,460.86 447.00,449.00
             456.19,454.52 462.15,458.45 470.00,466.04
             479.26,475.00 482.97,482.05 496.00,487.66
             501.00,489.82 506.58,490.93 512.00,491.00
             527.35,491.18 539.73,488.59 546.65,473.00
             549.10,467.48 549.00,463.82 549.00,458.00
             538.95,462.33 533.45,465.80 522.00,466.68
             508.60,467.70 493.24,458.22 483.00,450.53
             483.00,450.53 454.00,428.06 454.00,428.06
             449.20,425.09 441.76,421.75 436.00,422.34
             430.04,422.95 425.72,426.04 421.00,429.36
             417.97,431.49 414.69,434.11 410.85,432.36
             400.88,427.81 403.99,416.32 410.10,410.09
             427.58,392.29 451.14,409.78 468.00,419.14
             482.26,427.05 501.51,435.61 518.00,435.99
             530.05,436.26 541.43,431.14 551.00,424.08
             555.97,420.41 560.21,415.98 563.84,411.00
             571.46,400.55 571.84,394.02 574.00,382.00
             574.00,382.00 559.00,389.69 559.00,389.69
             549.54,394.03 536.43,397.87 526.00,398.00
             512.56,398.15 500.54,396.45 489.00,388.90
             469.01,375.83 457.02,355.69 430.00,356.00
             423.67,356.08 419.91,357.28 414.00,359.34
             406.50,361.96 398.59,366.14 393.18,372.04
             376.91,389.78 382.37,424.70 391.00,445.00 Z
           M 430.00,475.00
           C 439.25,475.01 447.18,476.39 452.52,485.04
             453.74,487.02 454.91,489.58 454.47,491.96
             453.60,496.62 447.91,497.93 444.18,495.82
             441.22,494.15 439.25,489.89 437.58,487.00
             437.58,487.00 430.00,475.00 430.00,475.00 Z
           M 881.00,479.00
           C 875.58,488.65 863.95,503.09 856.80,512.00
             832.65,542.13 802.12,570.24 768.00,588.69
             755.23,595.60 741.78,601.45 728.00,606.00
             720.39,608.51 707.12,611.50 701.00,615.80
             693.81,620.86 689.47,630.73 684.12,638.00
             680.42,643.02 674.94,648.32 673.00,654.00
             673.00,654.00 702.00,648.58 702.00,648.58
             715.19,645.66 732.51,640.13 745.00,634.99
             799.04,612.76 842.63,576.47 867.78,523.00
             873.97,509.84 880.13,493.25 883.00,479.00
             883.00,479.00 881.00,479.00 881.00,479.00 Z
           M 2.00,484.00
           C 3.43,500.99 17.91,532.16 26.80,547.00
             57.58,598.40 109.17,632.81 166.00,649.42
             179.92,653.49 198.59,658.34 213.00,659.00
             213.00,659.00 199.02,640.00 199.02,640.00
             194.64,633.65 191.42,626.26 185.00,621.63
             177.74,616.41 159.52,612.44 150.00,608.95
             131.19,602.05 112.47,592.53 96.00,581.12
             73.05,565.21 52.52,546.25 34.43,525.00
             34.43,525.00 15.15,501.00 15.15,501.00
             11.17,495.59 6.88,488.37 2.00,484.00 Z
           M 72.00,685.00
           C 66.90,679.94 60.73,673.64 54.00,671.00
             49.68,686.44 61.26,695.61 73.00,703.48
             73.00,703.48 80.67,708.61 80.67,708.61
             82.96,710.66 84.43,713.40 86.00,716.00
             74.52,708.83 62.34,702.04 49.00,699.00
             49.42,717.55 70.33,730.68 86.00,736.58
             86.00,736.58 101.82,741.59 101.82,741.59
             104.58,743.62 108.25,749.89 110.00,753.00
             93.88,744.48 82.61,739.41 64.00,739.00
             66.69,745.87 71.13,749.15 77.00,753.28
             86.71,760.11 98.55,766.29 110.00,769.57
             110.00,769.57 124.00,772.73 124.00,772.73
             124.00,772.73 134.00,779.00 134.00,779.00
             134.00,779.00 114.00,778.00 114.00,778.00
             114.00,778.00 92.00,778.00 92.00,778.00
             98.64,793.50 115.75,793.42 130.00,794.04
             130.00,794.04 138.00,795.04 138.00,795.04
             138.00,795.04 146.00,795.04 146.00,795.04
             146.00,795.04 165.00,798.00 165.00,798.00
             165.00,798.00 162.00,794.00 162.00,794.00
             162.00,794.00 165.00,795.00 165.00,795.00
             165.00,795.00 165.68,783.00 165.68,783.00
             167.29,774.13 171.32,767.41 167.52,758.00
             166.79,756.19 165.88,754.61 164.78,753.00
             164.03,751.91 162.64,750.05 161.70,749.16
             157.51,745.21 155.05,747.84 152.82,752.00
             149.18,758.80 149.70,763.75 151.00,771.00
             151.00,771.00 142.00,764.00 142.00,764.00
             146.12,749.74 146.24,721.52 129.00,716.00
             126.97,724.36 125.51,741.66 127.00,750.00
             124.41,747.40 120.98,744.37 119.51,741.00
             116.81,734.81 118.92,728.39 119.00,722.00
             119.00,722.00 119.00,713.00 119.00,713.00
             118.98,700.80 116.61,695.15 110.00,685.00
             99.61,690.54 100.20,711.94 102.00,722.00
             100.50,719.81 98.77,717.52 97.93,715.00
             95.22,707.53 98.18,690.40 97.93,682.00
             97.80,673.79 95.94,661.87 87.00,659.00
             81.54,675.38 81.00,674.61 81.00,692.00
             78.74,688.02 73.31,678.30 73.12,674.00
             73.12,674.00 75.91,658.00 75.91,658.00
             76.33,650.56 73.55,640.07 69.21,634.00
             67.75,631.95 65.89,629.86 63.99,628.21
             56.12,621.40 50.82,622.96 48.67,633.00
             46.84,641.56 48.29,652.22 52.27,660.00
             54.58,664.51 57.84,668.41 62.00,671.36
             64.35,673.02 67.38,673.92 69.07,676.27
             70.51,678.27 71.45,682.55 72.00,685.00 Z
           M 797.00,624.00
           C 790.31,628.78 780.59,632.88 773.00,636.30
             751.52,645.99 732.18,652.92 709.00,657.55
             697.50,659.85 676.10,660.78 667.00,664.90
             656.50,669.67 652.09,678.50 645.33,687.00
             637.53,696.82 626.98,706.81 615.00,711.00
             618.69,713.15 620.84,712.98 625.00,713.00
             625.00,713.00 655.00,711.15 655.00,711.15
             694.55,706.43 734.89,687.94 765.00,662.00
             774.29,653.99 782.99,645.53 790.74,636.00
             793.44,632.68 797.83,628.54 797.00,624.00 Z
           M 806.00,692.00
           C 806.00,692.00 805.39,684.00 805.39,684.00
             804.31,673.06 803.04,669.17 799.00,659.00
             784.46,666.05 788.88,690.83 789.82,704.00
             790.33,711.27 787.98,715.77 785.00,722.00
             785.00,722.00 785.82,708.00 785.82,708.00
             785.13,698.54 782.62,693.41 779.00,685.00
             779.00,685.00 776.00,685.00 776.00,685.00
             769.30,696.99 767.02,700.76 767.05,715.00
             766.99,721.51 769.09,734.81 767.05,740.00
             765.76,743.54 762.61,746.35 759.92,749.00
             759.92,749.00 759.92,736.00 759.92,736.00
             759.92,736.00 758.00,716.00 758.00,716.00
             740.37,719.75 741.50,745.37 742.94,759.00
             743.55,764.78 738.85,767.23 735.00,771.00
             737.51,760.68 736.09,753.94 729.00,746.00
             726.36,747.90 724.43,749.48 722.33,752.00
             710.46,766.27 722.90,775.73 720.00,792.00
             720.00,792.00 722.00,791.00 722.00,791.00
             722.00,791.00 721.00,794.00 721.00,794.00
             721.00,794.00 725.00,794.00 725.00,794.00
             725.00,794.00 722.00,798.00 722.00,798.00
             722.00,798.00 740.00,795.17 740.00,795.17
             756.81,793.56 786.44,797.27 794.00,778.00
             794.00,778.00 771.00,778.00 771.00,778.00
             771.00,778.00 752.00,780.00 752.00,780.00
             752.00,780.00 762.00,772.98 762.00,772.98
             762.00,772.98 778.00,768.97 778.00,768.97
             785.96,766.45 799.09,760.23 806.00,755.64
             812.37,751.42 819.45,746.49 822.00,739.00
             801.52,739.45 793.49,744.59 776.00,753.00
             778.01,749.99 782.33,742.68 785.18,741.02
             785.18,741.02 799.00,737.19 799.00,737.19
             812.15,732.19 832.26,720.27 836.36,706.00
             837.05,703.63 836.98,701.43 837.00,699.00
             825.05,701.80 809.35,709.09 800.00,717.00
             801.42,714.05 802.91,710.87 805.38,708.63
             811.84,702.78 840.04,690.36 832.00,671.00
             825.86,673.62 818.90,680.33 814.00,685.00
             814.86,682.39 815.90,678.28 817.56,676.21
             819.82,673.39 823.65,672.21 826.91,669.47
             830.02,666.87 832.77,662.66 834.51,659.00
             838.09,651.44 839.02,641.21 837.54,633.00
             835.65,622.54 829.99,621.28 822.02,628.21
             820.42,629.60 818.87,631.28 817.63,633.00
             811.25,641.88 809.90,653.38 811.18,664.00
             811.18,664.00 813.29,674.00 813.29,674.00
             813.09,678.05 807.50,686.86 806.00,692.00 Z
           M 87.00,630.00
           C 91.91,642.64 113.21,662.16 124.00,670.80
             158.74,698.64 198.56,714.98 243.00,718.09
             243.00,718.09 253.00,719.00 253.00,719.00
             253.00,719.00 271.00,718.00 271.00,718.00
             271.00,718.00 263.00,713.37 263.00,713.37
             255.83,709.11 249.73,703.18 244.17,697.00
             236.31,688.27 230.80,676.72 220.00,671.28
             211.56,667.02 202.17,666.86 193.00,665.72
             193.00,665.72 163.00,660.13 163.00,660.13
             142.92,655.11 123.78,647.31 105.00,638.69
             105.00,638.69 87.00,630.00 87.00,630.00 Z
           M 87.00,716.00
           C 87.00,716.00 87.00,717.00 87.00,717.00
             87.00,717.00 86.00,716.00 86.00,716.00
             86.00,716.00 87.00,716.00 87.00,716.00 Z
           M 103.00,722.00
           C 103.00,722.00 103.00,723.00 103.00,723.00
             103.00,723.00 102.00,722.00 102.00,722.00
             102.00,722.00 103.00,722.00 103.00,722.00 Z
           M 476.00,735.00
           C 489.30,757.78 518.53,764.28 543.00,764.00
             543.00,764.00 552.00,763.17 552.00,763.17
             589.32,759.44 621.75,745.57 654.00,727.00
             650.82,725.74 638.85,725.01 635.00,725.00
             621.99,724.97 602.76,720.14 591.00,724.10
             584.74,726.21 579.72,730.56 574.00,733.69
             567.61,737.18 559.14,739.74 552.00,741.19
             533.70,744.91 517.30,744.79 499.00,741.19
             499.00,741.19 476.00,735.00 476.00,735.00 Z
           M 232.00,731.00
           C 235.09,736.31 242.73,738.94 248.00,741.86
             259.27,748.11 272.27,754.07 285.00,756.39
             285.00,756.39 312.00,759.75 312.00,759.75
             328.63,765.08 337.22,776.58 350.00,784.00
             348.95,777.20 345.45,768.04 342.14,762.00
             338.96,756.22 334.69,749.68 329.96,745.09
             318.16,733.63 302.14,728.67 286.00,728.04
             286.00,728.04 249.00,731.00 249.00,731.00
             249.00,731.00 232.00,731.00 232.00,731.00 Z
           M 194.00,743.00
           C 191.82,748.12 190.71,753.61 189.37,759.00
             184.09,780.42 178.92,810.24 203.00,822.39
             206.95,824.38 209.65,825.32 214.00,826.00
             211.72,816.27 207.76,809.25 206.29,798.00
             204.04,780.80 207.41,756.43 194.00,743.00 Z
           M 691.00,743.00
           C 687.42,750.45 684.09,755.54 682.46,764.00
             682.46,764.00 679.56,800.00 679.56,800.00
             677.46,813.06 674.72,815.91 672.00,826.00
             676.28,825.34 680.18,824.21 684.00,822.10
             712.86,806.15 697.96,767.68 693.00,743.00
             693.00,743.00 691.00,743.00 691.00,743.00 Z
           M 760.00,749.00
           C 760.00,749.00 760.00,750.00 760.00,750.00
             760.00,750.00 759.00,749.00 759.00,749.00
             759.00,749.00 760.00,749.00 760.00,749.00 Z
           M 111.00,753.00
           C 111.00,753.00 111.00,754.00 111.00,754.00
             111.00,754.00 110.00,753.00 110.00,753.00
             110.00,753.00 111.00,753.00 111.00,753.00 Z
           M 776.00,753.00
           C 776.00,753.00 776.00,754.00 776.00,754.00
             776.00,754.00 775.00,753.00 775.00,753.00
             775.00,753.00 776.00,753.00 776.00,753.00 Z
           M 112.00,754.00
           C 112.00,754.00 112.00,755.00 112.00,755.00
             112.00,755.00 111.00,754.00 111.00,754.00
             111.00,754.00 112.00,754.00 112.00,754.00 Z
           M 135.00,780.00
           C 135.00,780.00 135.00,781.00 135.00,781.00
             135.00,781.00 134.00,780.00 134.00,780.00
             134.00,780.00 135.00,780.00 135.00,780.00 Z
           M 752.00,780.00
           C 752.00,780.00 752.00,781.00 752.00,781.00
             752.00,781.00 751.00,780.00 751.00,780.00
             751.00,780.00 752.00,780.00 752.00,780.00 Z
           M 164.00,790.00
           C 164.00,790.00 164.00,791.00 164.00,791.00
             164.00,791.00 163.00,790.00 163.00,790.00
             163.00,790.00 164.00,790.00 164.00,790.00 Z
           M 165.00,791.00
           C 165.00,791.00 165.00,792.00 165.00,792.00
             165.00,792.00 164.00,791.00 164.00,791.00
             164.00,791.00 165.00,791.00 165.00,791.00 Z
           M 726.00,793.00
           C 726.00,793.00 726.00,794.00 726.00,794.00
             726.00,794.00 725.00,793.00 725.00,793.00
             725.00,793.00 726.00,793.00 726.00,793.00 Z
           M 145.00,840.00
           C 141.63,832.53 132.33,825.85 137.44,819.05
             138.67,817.43 140.72,815.71 142.72,815.17
             147.14,813.96 155.51,819.94 159.00,822.43
             171.11,831.07 181.41,840.13 195.00,846.74
             216.39,857.14 245.90,854.05 269.00,852.32
             281.48,851.39 295.64,860.27 305.00,867.66
             309.74,871.41 311.59,873.57 317.00,877.00
             316.95,871.88 316.34,866.90 314.78,862.00
             306.05,834.48 267.83,832.96 244.00,833.00
             244.00,833.00 227.00,834.00 227.00,834.00
             212.21,834.02 203.02,833.12 189.00,827.55
             169.28,819.73 151.53,805.39 130.00,802.95
             123.18,802.18 116.66,801.47 110.00,804.14
             100.12,808.11 99.87,819.98 107.10,826.79
             113.13,832.46 136.39,838.67 145.00,840.00 Z
           M 569.00,877.00
           C 581.27,870.43 596.49,850.79 617.00,852.32
             643.34,854.29 670.65,857.33 695.00,844.74
             706.71,838.69 718.25,828.87 729.00,821.15
             733.00,818.28 739.82,813.51 744.96,815.63
             746.62,816.31 748.11,817.62 749.11,819.10
             753.81,826.06 744.79,832.90 741.00,840.00
             749.95,838.74 773.33,832.44 779.67,826.47
             786.61,819.95 785.30,807.85 776.00,804.14
             769.20,801.43 762.01,802.12 755.00,803.13
             733.00,806.29 717.88,819.49 698.00,827.19
             682.13,833.34 674.72,834.08 658.00,834.00
             658.00,834.00 644.00,833.00 644.00,833.00
             620.54,832.73 582.22,834.08 572.12,860.00
             570.34,864.56 569.23,872.08 569.00,877.00 Z
           M 442.00,916.00
           C 442.00,916.00 444.00,916.00 444.00,916.00
             450.35,904.18 457.25,897.45 466.91,888.42
             471.00,884.60 477.03,878.15 475.67,872.00
             474.52,866.81 468.47,863.79 464.00,861.87
             451.46,856.49 436.74,856.21 424.00,861.06
             418.77,863.05 411.04,866.78 410.27,873.00
             409.51,879.10 415.13,884.11 419.00,888.00
             428.09,897.14 436.22,904.15 442.00,916.00 Z
           M 206.00,863.00
           C 208.12,873.39 220.43,882.49 229.00,887.95
             247.45,899.69 275.98,909.97 298.00,910.00
             298.00,910.00 308.00,910.00 308.00,910.00
             304.33,907.04 299.37,906.22 295.00,904.58
             286.87,901.51 278.69,898.28 271.00,894.22
             260.70,888.79 250.80,882.36 242.00,874.71
             234.58,868.26 233.30,863.07 223.00,863.00
             223.00,863.00 206.00,863.00 206.00,863.00 Z
           M 578.00,909.00
           C 584.21,911.47 600.22,909.37 607.00,908.00
             624.82,904.38 643.89,896.75 659.00,886.67
             669.40,879.73 675.91,874.74 681.00,863.00
             676.74,863.00 659.87,862.54 657.00,863.60
             653.21,864.99 647.33,871.83 644.00,874.83
             637.86,880.36 630.07,885.62 623.00,889.94
             609.07,898.44 593.40,903.87 578.00,909.00 Z
           M 141.00,867.00
           C 141.00,867.00 157.91,881.01 157.91,881.01
             173.63,897.48 184.24,914.59 206.00,925.63
             225.86,935.70 260.50,935.55 283.00,937.09
             289.87,937.56 300.31,938.93 307.00,940.42
             307.00,940.42 321.00,944.00 321.00,944.00
             314.87,931.08 291.88,927.41 279.00,924.66
             262.63,921.17 233.48,918.77 220.00,910.99
             198.99,898.86 184.65,877.31 161.00,869.52
             152.71,866.79 149.44,867.00 141.00,867.00 Z
           M 565.00,944.00
           C 565.00,944.00 581.00,940.09 581.00,940.09
             594.34,937.58 610.43,936.16 624.00,936.00
             624.00,936.00 634.00,935.09 634.00,935.09
             649.28,934.04 666.16,932.94 680.00,925.68
             708.15,910.91 719.69,884.87 745.00,868.00
             733.65,863.50 715.12,873.33 706.00,879.72
             690.70,890.43 675.70,908.69 658.00,914.64
             658.00,914.64 591.00,928.43 591.00,928.43
             581.03,931.27 570.24,934.33 565.00,944.00 Z
           M 440.00,944.00
           C 439.21,907.82 398.31,871.81 363.00,871.01
             358.10,870.90 356.54,871.38 352.00,871.83
             341.70,872.86 328.07,873.93 326.37,887.00
             325.00,897.51 335.49,902.84 344.00,905.12
             363.66,910.37 379.29,907.44 398.00,915.86
             407.03,919.93 417.17,927.33 425.00,933.42
             429.83,937.18 434.34,941.58 440.00,944.00 Z
           M 446.00,944.00
           C 451.74,941.76 456.17,937.39 461.00,933.65
             469.22,927.29 477.54,920.92 487.00,916.49
             505.68,907.73 519.72,910.25 539.00,905.99
             547.81,904.04 558.76,900.43 559.80,890.00
             560.66,881.50 555.50,876.71 548.00,874.10
             537.61,870.49 519.73,870.31 509.00,872.90
             478.33,880.29 448.59,912.12 446.00,944.00 Z
           M 318.00,918.00
           C 320.69,923.70 328.33,931.00 332.72,936.00
             340.36,944.71 348.97,953.57 359.00,959.55
             383.74,974.30 412.57,968.31 439.00,963.00
             435.65,954.43 423.30,942.54 416.00,936.89
             391.67,918.05 363.11,912.61 333.00,915.84
             327.95,916.38 322.95,916.78 318.00,918.00 Z
           M 447.00,963.00
           C 460.94,965.62 477.79,969.58 492.00,968.96
             521.73,967.67 536.20,955.69 555.28,934.00
             559.94,928.71 564.91,923.78 569.00,918.00
             532.83,911.41 498.67,914.34 469.00,938.00
             461.87,943.69 450.56,954.65 447.00,963.00 Z
           M 388.00,984.00
           C 397.95,990.47 416.04,995.62 421.82,1001.21
             426.76,1006.00 434.48,1024.71 445.00,1022.20
             455.72,1019.63 459.24,1003.74 470.00,997.35
             478.02,992.59 493.58,990.36 498.00,982.00
             484.48,976.63 475.43,977.41 462.00,973.57
             462.00,973.57 443.00,967.42 443.00,967.42
             440.18,967.44 434.90,970.09 432.00,971.19
             427.79,972.79 420.48,974.65 416.00,975.55
             407.35,977.29 394.12,977.19 388.00,984.00 Z" />
  <path
        fill="#000092" stroke="black" stroke-width="4"
        d="M 427.00,0.21
           C 417.30,1.89 408.32,3.44 399.00,6.69
             363.54,19.06 333.99,47.70 321.05,83.00
             296.04,151.23 330.11,227.83 400.00,251.33
             409.92,254.67 423.55,257.87 434.00,258.00
             458.58,258.28 478.73,256.16 501.00,244.52
             526.63,231.11 546.01,212.13 558.74,186.00
             583.51,135.18 572.10,69.78 529.00,32.29
             518.45,23.11 505.99,14.86 493.00,9.60
             479.94,4.31 464.14,0.02 450.00,0.21
             450.00,0.21 427.00,0.21 427.00,0.21 Z
           M 443.00,43.00
           C 443.00,43.00 453.00,82.00 453.00,82.00
             446.11,80.77 438.85,80.34 432.00,82.00
             432.00,82.00 438.15,56.00 438.15,56.00
             438.15,56.00 443.00,43.00 443.00,43.00 Z
           M 400.00,54.00
           C 400.00,54.00 428.00,83.00 428.00,83.00
             428.00,83.00 409.00,93.00 409.00,93.00
             409.00,93.00 402.12,67.00 402.12,67.00
             401.02,62.83 398.80,58.29 400.00,54.00 Z
           M 485.00,55.00
           C 484.49,61.12 477.48,87.17 475.00,93.00
             475.00,93.00 457.00,83.00 457.00,83.00
             461.05,77.35 479.35,59.05 485.00,55.00 Z
           M 407.00,96.00
           C 402.63,102.55 399.25,106.12 397.00,114.00
             397.00,114.00 384.00,103.00 384.00,103.00
             384.00,103.00 368.00,86.00 368.00,86.00
             368.00,86.00 407.00,96.00 407.00,96.00 Z
           M 434.00,86.30
           C 442.79,85.42 451.84,85.63 460.00,89.31
             486.98,101.48 494.63,137.42 473.91,158.96
             464.27,168.98 453.49,172.15 440.00,172.00
             433.95,171.93 429.53,170.80 424.00,168.33
             387.17,151.90 391.38,94.61 434.00,86.30 Z
           M 517.00,86.00
           C 517.00,86.00 501.00,103.00 501.00,103.00
             501.00,103.00 488.00,114.00 488.00,114.00
             488.00,114.00 478.00,96.00 478.00,96.00
             478.00,96.00 517.00,86.00 517.00,86.00 Z
           M 395.00,118.00
           C 395.00,118.00 395.00,140.00 395.00,140.00
             395.00,140.00 356.00,129.00 356.00,129.00
             356.00,129.00 395.00,118.00 395.00,118.00 Z
           M 490.00,118.00
           C 490.00,118.00 516.00,125.12 516.00,125.12
             520.11,126.20 525.28,126.48 528.00,130.00
             528.00,130.00 490.00,139.00 490.00,139.00
             490.00,139.00 490.00,118.00 490.00,118.00 Z
           M 490.00,139.00
           C 490.00,139.00 490.00,140.00 490.00,140.00
             490.00,140.00 489.00,139.00 489.00,139.00
             489.00,139.00 490.00,139.00 490.00,139.00 Z
           M 489.00,143.00
           C 489.00,143.00 517.00,172.00 517.00,172.00
             517.00,172.00 478.00,162.00 478.00,162.00
             478.00,162.00 483.66,153.00 483.66,153.00
             483.66,153.00 489.00,143.00 489.00,143.00 Z
           M 397.00,144.00
           C 399.25,151.88 402.63,155.45 407.00,162.00
             407.00,162.00 368.00,172.00 368.00,172.00
             368.00,172.00 384.00,155.00 384.00,155.00
             384.00,155.00 397.00,144.00 397.00,144.00 Z
           M 428.00,175.00
           C 428.00,175.00 412.00,192.00 412.00,192.00
             412.00,192.00 399.00,203.00 399.00,203.00
             399.00,203.00 409.00,165.00 409.00,165.00
             409.00,165.00 418.00,170.13 418.00,170.13
             418.00,170.13 428.00,175.00 428.00,175.00 Z
           M 476.00,165.00
           C 476.00,165.00 485.00,203.00 485.00,203.00
             479.35,198.95 461.05,180.65 457.00,175.00
             457.00,175.00 476.00,165.00 476.00,165.00 Z
           M 453.00,176.00
           C 453.00,176.00 446.29,202.00 446.29,202.00
             446.29,202.00 442.00,215.00 442.00,215.00
             442.00,215.00 432.00,176.00 432.00,176.00
             440.98,177.61 444.15,177.17 453.00,176.00 Z
           M 976.50,105.00" />
  <path
        fill="white" stroke="black" stroke-width="4"
        d="M 442.00,45.00
           C 442.00,45.00 433.00,81.00 433.00,81.00
             439.61,79.39 445.37,79.81 452.00,81.00
             452.00,81.00 442.00,45.00 442.00,45.00 Z
           M 400.00,56.00
           C 400.00,56.00 409.00,91.00 409.00,91.00
             409.00,91.00 426.00,83.00 426.00,83.00
             423.00,76.65 406.08,60.35 400.00,56.00 Z
           M 483.00,57.00
           C 483.00,57.00 458.00,83.00 458.00,83.00
             458.00,83.00 475.00,92.00 475.00,92.00
             475.00,92.00 481.12,69.00 481.12,69.00
             481.12,69.00 483.00,57.00 483.00,57.00 Z
           M 440.00,86.44
           C 423.63,88.81 410.71,94.88 403.51,111.00
             391.93,136.95 409.16,170.64 439.00,171.00
             452.06,171.15 462.03,169.34 471.91,159.83
             499.81,132.98 479.34,83.29 440.00,86.44 Z
           M 370.00,87.00
           C 374.01,92.61 390.39,108.99 396.00,113.00
             396.00,113.00 405.00,96.00 405.00,96.00
             405.00,96.00 370.00,87.00 370.00,87.00 Z
           M 479.00,96.00
           C 479.00,96.00 489.00,113.00 489.00,113.00
             494.61,108.99 510.99,92.61 515.00,87.00
             515.00,87.00 479.00,96.00 479.00,96.00 Z
           M 393.02,119.00
           C 393.02,119.00 359.00,128.00 359.00,128.00
             359.00,128.00 370.00,132.29 370.00,132.29
             370.00,132.29 394.00,138.00 394.00,138.00
             394.00,138.00 393.02,130.00 393.02,130.00
             393.02,130.00 393.02,119.00 393.02,119.00 Z
           M 490.00,119.00
           C 491.46,125.00 491.46,133.00 490.00,139.00
             490.00,139.00 525.00,129.00 525.00,129.00
             525.00,129.00 490.00,119.00 490.00,119.00 Z
           M 395.00,145.00
           C 395.00,145.00 370.00,171.00 370.00,171.00
             370.00,171.00 405.00,162.00 405.00,162.00
             405.00,162.00 395.00,145.00 395.00,145.00 Z
           M 488.00,145.00
           C 488.00,145.00 480.00,162.00 480.00,162.00
             480.00,162.00 515.00,171.00 515.00,171.00
             510.65,164.92 494.35,148.00 488.00,145.00 Z
           M 410.00,166.00
           C 410.00,166.00 400.00,202.00 400.00,202.00
             406.08,197.65 423.00,181.35 426.00,175.00
             426.00,175.00 410.00,166.00 410.00,166.00 Z
           M 474.00,166.00
           C 468.88,169.95 464.29,173.20 458.00,175.00
             462.01,180.61 478.39,196.99 484.00,201.00
             484.00,201.00 478.88,181.00 478.88,181.00
             478.88,181.00 474.00,166.00 474.00,166.00 Z
           M 433.00,177.00
           C 433.00,177.00 442.00,212.00 442.00,212.00
             442.00,212.00 446.15,199.00 446.15,199.00
             446.15,199.00 452.00,177.00 452.00,177.00
             443.34,178.14 441.83,178.58 433.00,177.00 Z" />
  </symbol>
  <symbol id="stamp" viewBox="884 0 200 200">
      <circle cx="984" cy="100" r="93" stroke="red" stroke-width="14" fill="rgba(0,0,0,0)"></circle>
      <line x1="984" x2="984" y1="7" y2="193" stroke="red" stroke-width="14"></line>
      <line x1="984" x2="984" y1="100" y2="193" stroke="red" stroke-width="14" transform="rotate(45 984 100)"></line>
  </symbol>
</svg>
